<svg width="122" height="35" viewBox="0 0 122 35" fill="none" xmlns="http://www.w3.org/2000/svg">
<g clip-path="url(#clip0_893_1586)">
<path d="M31.7582 0H37.3097V35H31.7582V0ZM56.7399 23.835C56.7399 29.1914 52.2751 29.6184 50.9469 29.6184C47.6285 29.6184 47.0248 26.4852 47.0248 24.5952V11.2H41.4733V24.5672C41.4733 27.8852 42.5059 30.6236 44.3156 32.4492C45.9145 34.0634 48.3099 34.9454 50.9053 34.9454C52.7456 34.9454 55.352 34.3672 56.7399 33.089V35H62.2914V11.2H56.7399V23.835ZM73.3943 2.8H67.8429V11.2H63.6792V16.8H67.8429V35H73.3943V16.8H77.558V11.2H73.3943V2.8ZM95.041 27.8838C93.8321 28.98 92.2361 29.5876 90.4846 29.5876C86.6235 29.5876 83.7881 26.7274 83.7881 22.8004C83.7881 18.8734 86.5333 16.1336 90.4846 16.1336C92.2056 16.1336 93.8321 16.7118 95.0715 17.808L95.9139 18.5388L99.657 14.7644L98.7202 13.9118C96.5177 11.9056 93.5934 10.78 90.4832 10.78C83.5439 10.78 78.5045 15.8312 78.5045 22.771C78.5045 29.6814 83.6646 34.9132 90.4832 34.9132C93.6517 34.9132 96.6065 33.7876 98.7813 31.7492L99.6862 30.8966L95.8848 27.125L95.041 27.8838ZM119.472 13.2748C117.873 11.662 115.999 10.78 113.404 10.78C111.564 10.78 109.479 11.3582 108.091 12.635V0H102.54V35H108.091V21.889C108.091 16.5326 111.863 16.107 113.192 16.107C116.51 16.107 116.418 19.2416 116.418 21.1288V35H121.97V21.1582C121.97 17.8402 121.283 15.1018 119.472 13.2748Z" fill="white"/>
<path d="M90.3014 18.8132C91.366 18.8132 92.3869 19.2398 93.1396 19.9991C93.8923 20.7584 94.3152 21.7882 94.3152 22.862C94.3152 23.9358 93.8923 24.9657 93.1396 25.725C92.3869 26.4843 91.366 26.9108 90.3014 26.9108C89.2369 26.9108 88.216 26.4843 87.4633 25.725C86.7106 24.9657 86.2877 23.9358 86.2877 22.862C86.2877 21.7882 86.7106 20.7584 87.4633 19.9991C88.216 19.2398 89.2369 18.8132 90.3014 18.8132Z" fill="#6DDA84"/>
<path d="M23.9861 26.2094C21.8751 28.4004 19.0078 29.5876 15.9906 29.5876C9.8062 29.5876 5.30949 24.6876 5.30949 17.962C5.30949 11.2056 9.8062 6.30558 15.9906 6.30558C18.9786 6.30558 21.8141 7.49138 23.9569 9.65298L24.8008 10.5056L28.5119 6.76198L27.6973 5.90938C24.6203 2.71318 20.4567 0.97998 15.9906 0.97998C6.87918 0.97998 0.0300293 8.28378 0.0300293 17.9914C0.0300293 27.6696 6.90971 34.944 15.9906 34.944C20.4873 34.944 24.6509 33.18 27.7278 29.9838L28.5425 29.1312L24.8618 25.3274L23.9861 26.2094Z" fill="white"/>
</g>
<defs>
<clipPath id="clip0_893_1586">
<rect width="122" height="35" fill="white"/>
</clipPath>
</defs>
</svg>
