<svg width="87" height="18" viewBox="0 0 87 18" fill="none" xmlns="http://www.w3.org/2000/svg">
<path d="M8.7 0L10.6533 6.01155H16.9742L11.8605 9.7269L13.8137 15.7384L8.7 12.0231L3.58627 15.7384L5.53954 9.7269L0.425808 6.01155H6.74673L8.7 0Z" fill="#6DDA84"/>
<path d="M26.1 0L28.0533 6.01155H34.3742L29.2605 9.7269L31.2138 15.7384L26.1 12.0231L20.9863 15.7384L22.9396 9.7269L17.8258 6.01155H24.1468L26.1 0Z" fill="#6DDA84"/>
<path d="M43.5 0L45.4533 6.01155H51.7742L46.6604 9.7269L48.6137 15.7384L43.5 12.0231L38.3863 15.7384L40.3395 9.7269L35.2258 6.01155H41.5467L43.5 0Z" fill="#6DDA84"/>
<path d="M60.9 0L62.8533 6.01155H69.1742L64.0605 9.7269L66.0137 15.7384L60.9 12.0231L55.7863 15.7384L57.7396 9.7269L52.6258 6.01155H58.9467L60.9 0Z" fill="#6DDA84"/>
<path d="M78.3 0L80.2532 6.01155H86.5742L81.4604 9.7269L83.4137 15.7384L78.3 12.0231L73.1862 15.7384L75.1395 9.7269L70.0258 6.01155H76.3467L78.3 0Z" fill="#6DDA84"/>
</svg>
